Coordinates
version=1
nRows=14
nColumns=24
inDegrees=yes

Units are S.I. units (second, meters, Newtons, ...)
Angles are in degrees.

endheader
time	pelvis_tilt	pelvis_list	pelvis_rotation	pelvis_tx	pelvis_ty	pelvis_tz	hip_flexion_r	hip_adduction_r	hip_rotation_r	knee_angle_r	ankle_angle_r	subtalar_angle_r	mtp_angle_r	hip_flexion_l	hip_adduction_l	hip_rotation_l	knee_angle_l	ankle_angle_l	subtalar_angle_l	mtp_angle_l	lumbar_extension	lumbar_bending	lumbar_rotation
      0.01000000	     76.36205844	     -2.38468507	     -0.73623139	      0.53177674	      0.97950162	     -0.29903972	     -6.40455200	    -12.56860816	     -2.27570640	    -71.30393704	    -15.66156561	      0.00000000	      0.00000000	      3.18963275	     -9.71332940	     12.74340437	     -3.66880230	    -48.81047443	      0.00000000	      0.00000000	      0.00000000	      0.00000000	      0.00000000
      0.02000000	     75.87553112	     -1.60528748	     -1.09989041	      0.53645356	      0.97137388	     -0.29553972	     -5.77509750	    -14.01239288	     -3.14385439	    -69.97166679	    -18.73179184	      0.00000000	      0.00000000	      4.16448061	     -9.11799844	     12.77447009	     -3.80583057	    -48.68879053	      0.00000000	      0.00000000	      0.00000000	      0.00000000	      0.00000000
      0.03000000	     75.39391268	     -0.89960396	     -1.39198623	      0.53925161	      0.96694978	     -0.29398707	     -5.13740231	    -15.33627083	     -4.03997755	    -68.78182658	    -21.58312080	      0.00000000	      0.00000000	      5.01279625	     -8.50118350	     12.78936957	     -3.96811287	    -48.57436909	      0.00000000	      0.00000000	      0.00000000	      0.00000000	      0.00000000
      0.04000000	     74.94273098	     -0.30693702	     -1.58905659	      0.54043491	      0.96564297	     -0.29398913	     -4.53008765	    -16.48086582	     -4.92620742	    -67.80216173	    -24.07845515	      0.00000000	      0.00000000	      5.69476786	     -7.89761217	     12.78870991	     -4.14698175	    -48.47232117	      0.00000000	      0.00000000	      0.00000000	      0.00000000	      0.00000000
      0.05000000	     74.55970275	      0.14388581	     -1.68047492	      0.54075844	      0.96596640	     -0.29470581	     -4.01030615	    -17.39579769	     -5.74393986	    -67.08296274	    -26.08383966	      0.00000000	      0.00000000	      6.19387280	     -7.36003524	     12.77763241	     -4.32334285	    -48.38692040	      0.00000000	      0.00000000	      0.00000000	      0.00000000	      0.00000000
      0.06000000	     74.28274990	      0.45181704	     -1.67972693	      0.54096595	      0.96648516	     -0.29539489	     -3.63159695	    -18.05959932	     -6.43201803	    -66.62810530	    -27.52417750	      0.00000000	      0.00000000	      6.52683650	     -6.94002312	     12.76567827	     -4.47354725	    -48.31963476	      0.00000000	      0.00000000	      0.00000000	      0.00000000	      0.00000000
      0.07000000	     74.12952274	      0.63740188	     -1.61933222	      0.54124622	      0.96664557	     -0.29578204	     -3.42172242	    -18.48263789	     -6.94815121	    -66.39668060	    -28.40645460	      0.00000000	      0.00000000	      6.72630975	     -6.66400297	     12.76292631	     -4.58036277	    -48.26944738	      0.00000000	      0.00000000	      0.00000000	      0.00000000	      0.00000000
      0.08000000	     74.08845417	      0.72874074	     -1.53707435	      0.54141840	      0.96657134	     -0.29591556	     -3.37166277	    -18.70108004	     -7.28214980	    -66.32087380	    -28.81308442	      0.00000000	      0.00000000	      6.82203565	     -6.52327114	     12.77516339	     -4.63960180	    -48.23418605	      0.00000000	      0.00000000	      0.00000000	      0.00000000	      0.00000000
      0.09000000	     74.12882376	      0.75443762	     -1.46352174	      0.54140634	      0.96649739	     -0.29592269	     -3.43864324	    -18.76685612	     -7.45629861	    -66.32695973	    -28.87550429	      0.00000000	      0.00000000	      6.83631322	     -6.48367062	     12.80126032	     -4.65861100	    -48.21142810	      0.00000000	      0.00000000	      0.00000000	      0.00000000	      0.00000000
      0.10000000	     74.21443823	      0.74066896	     -1.41569949	      0.54131003	      0.96649227	     -0.29588918	     -3.56398946	    -18.73764018	     -7.51355423	    -66.35468711	    -28.74011793	      0.00000000	      0.00000000	      6.79008601	     -6.50389314	     12.83403619	     -4.65012004	    -48.19875204	      0.00000000	      0.00000000	      0.00000000	      0.00000000	      0.00000000
      0.11000000	     74.31272390	      0.70874413	     -1.39707961	      0.54122716	      0.96651061	     -0.29584690	     -3.69462309	    -18.66707800	     -7.50134928	    -66.36902913	    -28.53741239	      0.00000000	      0.00000000	      6.70870498	     -6.54944716	     12.86361948	     -4.62676387	    -48.19381021	      0.00000000	      0.00000000	      0.00000000	      0.00000000	      0.00000000
      0.12000000	     74.39946362	      0.67379941	     -1.40163399	      0.54117933	      0.96651595	     -0.29580597	     -3.79618432	    -18.59565260	     -7.45926043	    -66.36052172	    -28.36143809	      0.00000000	      0.00000000	      6.62084795	     -6.59763378	     12.88132798	     -4.59883060	    -48.19452535	      0.00000000	      0.00000000	      0.00000000	      0.00000000	      0.00000000
      0.13000000	     74.45999499	      0.64505203	     -1.41933701	      0.54114634	      0.96651198	     -0.29577989	     -3.85525926	    -18.54522106	     -7.41372542	    -66.33686725	    -28.26220265	      0.00000000	      0.00000000	      6.55190556	     -6.63614566	     12.88253544	     -4.57428873	    -48.19930322	      0.00000000	      0.00000000	      0.00000000	      0.00000000	      0.00000000
      0.14000000	     74.48900107	      0.62672426	     -1.44065740	      0.54111499	      0.96651558	     -0.29577474	     -3.87381786	    -18.52006696	     -7.37850078	    -66.31135818	    -28.24959950	      0.00000000	      0.00000000	      6.51723945	     -6.65989730	     12.86800254	     -4.55878160	    -48.20702779	      0.00000000	      0.00000000	      0.00000000	      0.00000000	      0.00000000
